<svg width="1000" height="1000" viewBox="0 0 1000 1000" xmlns="http://www.w3.org/2000/svg"><defs/><g opacity="0.6" transform="matrix(1.1393852448219002 0 0 1.1393852448219004 -1.1361032878418684 -1.0593278606464436)"><path fill="#d10809" d="M 417.43025545164 489.37967710847 C 408.63025545164 482.57967710847 399.23025545164 476.27967710847 389.33025545164 470.47967710847 C 354.03025545164 450.07967710847 315.83025545164 439.37967710847 277.63025545164 437.27967710847 L 277.63025545164 469.97967710847 L 387.03025545164 533.17967710847 L 416.43025545164 513.37967710847 C 424.93025545164 507.77967710847 425.43025545164 495.57967710847 417.43025545164 489.37967710847 Z"/></g><g opacity="0.6" transform="matrix(1.1393852448219002 0 0 1.1393852448219004 -1.1361032878418684 -1.0593278606464436)"><path fill="#e2581c" d="M 528.93025545164 453.77967710847 C 518.63025545164 457.97967710847 508.43025545164 462.97967710847 498.53025545164 468.67967710847 C 463.23025545164 489.07967710847 434.83025545164 516.77967710847 413.93025545164 548.77967710847 L 442.23025545164 565.07967710847 L 551.83025545164 501.87967710847 L 549.43025545164 466.57967710847 C 548.73025545164 456.47967710847 538.33025545164 449.87967710847 528.93025545164 453.77967710847 Z"/></g><g opacity="0.6" transform="matrix(1.1393852448219002 0 0 1.1393852448219004 -1.1361032878418684 -1.0593278606464436)"><path fill="#d10809" d="M 607.03025545164 343.67967710847 L 575.23025545164 328.07967710847 C 566.13025545164 323.57967710847 555.33025545164 329.37967710847 553.93025545164 339.37967710847 C 552.43025545164 350.37967710847 551.63025545164 361.67967710847 551.63025545164 373.07967710847 C 551.63025545164 413.87967710847 561.43025545164 452.27967710847 578.73025545164 486.37967710847 L 607.03025545164 469.97967710847 L 607.03025545164 343.67967710847 Z"/></g><g opacity="0.6" transform="matrix(1.1393852448219002 0 0 1.1393852448219004 -1.1361032878418684 -1.0593278606464436)"><path fill="#e2581c" d="M 467.23025545164 260.57967710847 C 476.03025545164 267.37967710847 485.43025545164 273.67967710847 495.33025545164 279.47967710847 C 530.63025545164 299.87967710847 568.83025545164 310.57967710847 607.03025545164 312.67967710847 L 607.03025545164 279.97967710847 L 497.53025545164 216.77967710847 L 468.13025545164 236.57967710847 C 459.73025545164 242.17967710847 459.23025545164 254.37967710847 467.23025545164 260.57967710847 Z"/></g><g opacity="0.6" transform="matrix(1.1393852448219002 0 0 1.1393852448219004 -1.1361032878418684 -1.0593278606464436)"><path fill="#d10809" d="M 355.73025545164 296.17967710847 C 366.03025545164 291.97967710847 376.23025545164 286.97967710847 386.13025545164 281.27967710847 C 421.43025545164 260.87967710847 449.83025545164 233.17967710847 470.73025545164 201.17967710847 L 442.43025545164 184.87967710847 L 333.03025545164 248.07967710847 L 335.43025545164 283.37967710847 C 336.03025545164 293.47967710847 346.43025545164 300.07967710847 355.73025545164 296.17967710847 Z"/></g><g opacity="0.6" transform="matrix(1.1393852448219002 0 0 1.1393852448219004 -1.1361032878418684 -1.0593278606464436)"><path fill="#e2581c" d="M 330.83025545164 410.57967710847 C 332.33025545164 399.57967710847 333.13025545164 388.27967710847 333.13025545164 376.87967710847 C 333.13025545164 336.07967710847 323.33025545164 297.67967710847 306.03025545164 263.57967710847 L 277.73025545164 279.87967710847 L 277.73025545164 406.27967710847 L 309.53025545164 421.87967710847 C 318.63025545164 426.27967710847 329.43025545164 420.57967710847 330.83025545164 410.57967710847 Z"/></g><path fill="#d10809" transform="matrix(1.1393852448219002 0 0 1.1393852448219004 -1.1361032878418684 -1.0593278606464436)" d="M 277.73025545164 470.07967710847 L 277.73025545164 437.37967710847 C 254.03025545164 436.07967710847 230.33025545164 438.27967710847 207.43025545164 443.57967710847 C 224.63025545164 501.97967710847 263.23025545164 551.27967710847 314.13025545164 582.27967710847 L 387.13025545164 533.27967710847 L 277.73025545164 470.07967710847 Z"/><path fill="#e2581c" transform="matrix(1.1393852448219002 0 0 1.1393852448219004 -1.1361032878418684 -1.0593278606464436)" d="M 442.33025545164 565.07967710847 L 414.03025545164 548.77967710847 C 401.43025545164 568.17967710847 391.63025545164 589.17967710847 384.83025545164 610.97967710847 C 402.53025545164 615.07967710847 420.83025545164 617.27967710847 439.83025545164 617.27967710847 C 482.63025545164 617.27967710847 522.73025545164 606.17967710847 557.63025545164 586.77967710847 L 551.83025545164 501.97967710847 L 442.33025545164 565.07967710847 Z"/><path fill="#d10809" transform="matrix(1.1393852448219002 0 0 1.1393852448219004 -1.1361032878418684 -1.0593278606464436)" d="M 607.03025545164 343.67967710847 L 607.03025545164 470.07967710847 L 578.73025545164 486.47967710847 C 588.83025545164 506.37967710847 601.53025545164 524.67967710847 616.33025545164 541.07967710847 C 655.93025545164 498.97967710847 680.63025545164 442.67967710847 682.03025545164 380.57967710847 L 607.03025545164 343.67967710847 Z"/><path fill="#e2581c" transform="matrix(1.1393852448219002 0 0 1.1393852448219004 -1.1361032878418684 -1.0593278606464436)" d="M 607.03025545164 279.87967710847 L 607.03025545164 312.57967710847 C 629.13025545164 313.77967710847 651.13025545164 311.87967710847 672.63025545164 307.37967710847 C 655.83025545164 249.57967710847 618.03025545164 200.57967710847 568.03025545164 169.37967710847 L 497.53025545164 216.77967710847 L 607.03025545164 279.87967710847 Z"/><path fill="#d10809" transform="matrix(1.1393852448219002 0 0 1.1393852448219004 -1.1361032878418684 -1.0593278606464436)" d="M 442.33025545164 184.87967710847 L 470.63025545164 201.17967710847 C 483.03025545164 182.17967710847 492.63025545164 161.57967710847 499.43025545164 140.07967710847 C 486.93025545164 136.87967710847 474.13025545164 134.67967710847 460.93025545164 133.47967710847 C 453.93025545164 132.87967710847 446.83025545164 132.57967710847 439.73025545164 132.57967710847 C 398.93025545164 132.57967710847 360.63025545164 142.67967710847 326.93025545164 160.47967710847 L 332.93025545164 247.97967710847 L 442.33025545164 184.87967710847 Z"/><path fill="#e2581c" transform="matrix(1.1393852448219002 0 0 1.1393852448219004 -1.1361032878418684 -1.0593278606464436)" d="M 277.73025545164 279.87967710847 L 306.03025545164 263.57967710847 C 295.33025545164 242.57967710847 281.83025545164 223.37967710847 265.93025545164 206.27967710847 C 225.33025545164 248.17967710847 199.63025545164 304.57967710847 197.63025545164 367.07967710847 L 277.63025545164 406.27967710847 L 277.63025545164 279.87967710847 Z"/><path id="text" fill="#ececec" transform="matrix(0.9937309771498658 0 0 0.9937309771498659 -7.918048425930131 691.3823104529142)" d="M 282.30628571429 98.17834057143 C 282.30628571429 105.79434057143 280.33828571429 111.57034057143 276.40228571429 115.50634057143 C 272.46628571429 119.44234057143 266.91428571429 121.41034057143 259.74628571429 121.41034057143 L 246.59428571429 121.41034057143 L 246.59428571429 143.29834057143 L 233.25028571429 143.29834057143 L 233.25028571429 74.94634057143 L 259.74628571429 74.94634057143 C 266.91428571429 74.94634057143 272.46628571429 76.91434057143 276.40228571429 80.85034057143 C 280.33828571429 84.78634057143 282.30628571429 90.56234057143 282.30628571429 98.17834057143 Z M 268.96228571429 98.17834057143 C 268.96228571429 90.62634057143 265.66628571429 86.85034057143 259.07428571429 86.85034057143 L 246.59428571429 86.85034057143 L 246.59428571429 109.41034057143 L 259.07428571429 109.41034057143 C 262.27428571429 109.41034057143 264.72228571429 108.54634057143 266.41828571429 106.81834057143 C 268.11428571429 105.09034057143 268.96228571429 102.21034057143 268.96228571429 98.17834057143 Z M 321.66628571429 88.67434057143 L 318.21028571429 100.96234057143 C 317.25028571429 100.57834057143 316.16228571429 100.38634057143 314.94628571429 100.38634057143 C 311.74628571429 100.38634057143 307.81028571429 101.76234057143 303.13828571429 104.51434057143 L 303.13828571429 143.29834057143 L 290.65828571429 143.29834057143 L 290.65828571429 88.48234057143 L 299.97028571429 88.48234057143 L 302.85028571429 93.28234057143 L 316.09828571429 87.81034057143 C 316.73828571429 87.74634057143 317.60228571429 87.71434057143 318.69028571429 87.71434057143 C 319.77828571429 87.71434057143 320.77028571429 88.03434057143 321.66628571429 88.67434057143 Z M 359.68228571429 118.53034057143 L 359.68228571429 113.53834057143 C 359.68228571429 108.80234057143 358.99428571429 105.18634057143 357.61828571429 102.69034057143 C 356.24228571429 100.19434057143 353.37828571429 98.94634057143 349.02628571429 98.94634057143 C 341.98628571429 98.94634057143 338.46628571429 103.68234057143 338.46628571429 113.15434057143 L 338.46628571429 118.14634057143 C 338.46628571429 128.32234057143 341.98628571429 133.41034057143 349.02628571429 133.41034057143 C 353.57028571429 133.41034057143 356.54628571429 131.71434057143 357.95428571429 128.32234057143 C 359.10628571429 125.63434057143 359.68228571429 122.37034057143 359.68228571429 118.53034057143 Z M 372.16228571429 115.65034057143 C 372.16228571429 127.49034057143 369.92228571429 135.42634057143 365.44228571429 139.45834057143 C 361.66628571429 142.91434057143 356.19428571429 144.64234057143 349.02628571429 144.64234057143 C 339.87428571429 144.64234057143 333.69828571429 141.95434057143 330.49828571429 136.57834057143 C 327.49028571429 131.65034057143 325.98628571429 124.67434057143 325.98628571429 115.65034057143 C 325.98628571429 107.20234057143 327.49028571429 100.57834057143 330.49828571429 95.77834057143 C 333.82628571429 90.40234057143 339.89028571429 87.71434057143 348.69028571429 87.71434057143 C 357.49028571429 87.71434057143 363.60228571429 90.06634057143 367.02628571429 94.77034057143 C 370.45028571429 99.47434057143 372.16228571429 106.43434057143 372.16228571429 115.65034057143 Z M 452.80228571429 143.29834057143 L 440.32228571429 143.29834057143 L 440.32228571429 109.21834057143 C 440.32228571429 105.82634057143 439.92228571429 103.45834057143 439.12228571429 102.11434057143 C 438.32228571429 100.77034057143 436.93028571429 100.09834057143 434.94628571429 100.09834057143 L 423.71428571429 104.80234057143 L 423.71428571429 143.29834057143 L 411.23428571429 143.29834057143 L 411.23428571429 109.21834057143 C 411.23428571429 103.13834057143 409.12228571429 100.09834057143 404.89828571429 100.09834057143 L 394.62628571429 104.80234057143 L 394.62628571429 143.29834057143 L 382.14628571429 143.29834057143 L 382.14628571429 88.48234057143 L 391.45828571429 88.48234057143 L 394.33828571429 95.01034057143 L 408.73828571429 87.90634057143 C 413.73028571429 87.90634057143 417.50628571429 90.33834057143 420.06628571429 95.20234057143 L 437.92228571429 87.90634057143 C 442.91428571429 87.90634057143 446.64228571429 89.58634057143 449.10628571429 92.94634057143 C 451.57028571429 96.30634057143 452.80228571429 100.83434057143 452.80228571429 106.53034057143 L 452.80228571429 143.29834057143 Z M 510.01828571429 114.40234057143 C 510.01828571429 128.67434057143 506.33828571429 137.79434057143 498.97828571429 141.76234057143 C 495.97028571429 143.36234057143 492.29028571429 144.16234057143 487.93828571429 144.16234057143 L 478.72228571429 138.21034057143 L 478.72228571429 159.61834057143 L 466.24228571429 159.61834057143 L 466.24228571429 88.86634057143 L 490.81828571429 88.86634057143 C 498.24228571429 88.86634057143 503.29828571429 90.96234057143 505.98628571429 95.15434057143 C 508.67428571429 99.34634057143 510.01828571429 105.76234057143 510.01828571429 114.40234057143 Z M 497.53828571429 116.32234057143 C 497.53828571429 105.50634057143 494.08228571429 100.09834057143 487.17028571429 100.09834057143 L 478.72228571429 100.09834057143 L 478.72228571429 125.53834057143 L 487.17028571429 131.01034057143 C 490.88228571429 131.01034057143 493.53828571429 129.84234057143 495.13828571429 127.50634057143 C 496.73828571429 125.17034057143 497.53828571429 121.44234057143 497.53828571429 116.32234057143 Z M 543.42628571429 143.29834057143 L 535.65028571429 143.29834057143 C 530.91428571429 143.29834057143 527.31428571429 141.89034057143 524.85028571429 139.07434057143 C 522.38628571429 136.25834057143 521.15428571429 132.89834057143 521.15428571429 128.99434057143 L 521.15428571429 100.19434057143 L 515.87428571429 100.19434057143 L 515.87428571429 90.69034057143 L 521.15428571429 90.69034057143 L 521.15428571429 79.93834057143 L 533.63428571429 79.93834057143 L 533.63428571429 90.69034057143 L 542.46628571429 90.69034057143 L 542.46628571429 100.19434057143 L 533.63428571429 100.19434057143 L 533.63428571429 128.22634057143 C 533.63428571429 131.23434057143 535.07428571429 132.73834057143 537.95428571429 132.73834057143 L 543.42628571429 132.73834057143 L 543.42628571429 143.29834057143 Z M 602.27428571429 74.94634057143 L 580.77028571429 139.45834057143 C 579.61828571429 142.40234057143 577.57028571429 143.87434057143 574.62628571429 143.87434057143 C 571.55428571429 143.87434057143 569.44228571429 142.40234057143 568.29028571429 139.45834057143 L 547.07428571429 74.94634057143 L 560.89828571429 74.94634057143 L 574.62628571429 119.49034057143 L 588.35428571429 74.94634057143 L 602.27428571429 74.94634057143 Z M 650.65828571429 118.81834057143 L 618.69028571429 118.81834057143 C 618.69028571429 123.81034057143 619.47428571429 127.45834057143 621.04228571429 129.76234057143 C 622.61028571429 132.06634057143 625.76228571429 133.21834057143 630.49828571429 133.21834057143 C 633.57028571429 133.21834057143 635.84228571429 132.24234057143 637.31428571429 130.29034057143 C 638.78628571429 128.33834057143 639.52228571429 126.46634057143 639.52228571429 124.67434057143 L 650.75428571429 124.67434057143 C 650.75428571429 131.52234057143 648.91428571429 136.54634057143 645.23428571429 139.74634057143 C 641.55428571429 142.94634057143 636.69028571429 144.54634057143 630.64228571429 144.54634057143 C 624.59428571429 144.54634057143 619.90628571429 143.68234057143 616.57828571429 141.95434057143 C 609.73028571429 138.43434057143 606.30628571429 129.09034057143 606.30628571429 113.92234057143 C 606.30628571429 104.89834057143 608.25828571429 98.29034057143 612.16228571429 94.09834057143 C 616.06628571429 89.90634057143 622.01828571429 87.81034057143 630.01828571429 87.81034057143 C 643.90628571429 87.81034057143 650.85028571429 95.52234057143 650.85028571429 110.94634057143 C 650.85028571429 112.61034057143 650.78628571429 115.23434057143 650.65828571429 118.81834057143 Z M 618.97828571429 110.27434057143 L 639.52228571429 110.27434057143 C 639.52228571429 106.05034057143 638.72228571429 102.97834057143 637.12228571429 101.05834057143 C 635.52228571429 99.13834057143 633.07428571429 98.17834057143 629.77828571429 98.17834057143 C 626.48228571429 98.17834057143 623.85828571429 99.15434057143 621.90628571429 101.10634057143 C 619.95428571429 103.05834057143 618.97828571429 106.11434057143 618.97828571429 110.27434057143 Z M 691.26628571429 88.67434057143 L 687.81028571429 100.96234057143 C 686.85028571429 100.57834057143 685.76228571429 100.38634057143 684.54628571429 100.38634057143 C 681.34628571429 100.38634057143 677.41028571429 101.76234057143 672.73828571429 104.51434057143 L 672.73828571429 143.29834057143 L 660.25828571429 143.29834057143 L 660.25828571429 88.48234057143 L 669.57028571429 88.48234057143 L 672.45028571429 93.28234057143 L 685.69828571429 87.81034057143 C 686.33828571429 87.74634057143 687.20228571429 87.71434057143 688.29028571429 87.71434057143 C 689.37828571429 87.71434057143 690.37028571429 88.03434057143 691.26628571429 88.67434057143 Z M 737.25028571429 128.13034057143 L 737.25028571429 129.57034057143 C 736.86628571429 134.37034057143 734.83428571429 137.98634057143 731.15428571429 140.41834057143 C 727.47428571429 142.85034057143 722.88228571429 144.06634057143 717.37828571429 144.06634057143 C 709.25028571429 144.06634057143 703.55428571429 142.59434057143 700.29028571429 139.65034057143 C 697.28228571429 136.96234057143 695.77828571429 132.99434057143 695.77828571429 127.74634057143 L 695.77828571429 126.59434057143 L 707.10628571429 126.59434057143 C 707.10628571429 129.53834057143 707.87428571429 131.55434057143 709.41028571429 132.64234057143 C 710.94628571429 133.73034057143 713.60228571429 134.27434057143 717.37828571429 134.27434057143 C 722.49828571429 134.27434057143 725.05828571429 132.41834057143 725.05828571429 128.70634057143 C 725.05828571429 125.63434057143 724.16228571429 123.58634057143 722.37028571429 122.56234057143 C 721.53828571429 122.05034057143 720.48228571429 121.66634057143 719.20228571429 121.41034057143 L 709.50628571429 119.77834057143 C 701.05828571429 118.43434057143 696.83428571429 113.15434057143 696.83428571429 103.93834057143 C 696.83428571429 98.81834057143 698.70628571429 94.83434057143 702.45028571429 91.98634057143 C 706.19428571429 89.13834057143 710.94628571429 87.71434057143 716.70628571429 87.71434057143 C 729.82628571429 87.71434057143 736.38628571429 93.37834057143 736.38628571429 104.70634057143 L 736.38628571429 105.95434057143 L 725.53828571429 105.95434057143 C 725.41028571429 102.94634057143 724.61028571429 100.89834057143 723.13828571429 99.81034057143 C 721.66628571429 98.72234057143 719.60228571429 98.17834057143 716.94628571429 98.17834057143 C 714.29028571429 98.17834057143 712.29028571429 98.70634057143 710.94628571429 99.76234057143 C 709.60228571429 100.81834057143 708.93028571429 101.98634057143 708.93028571429 103.26634057143 C 708.93028571429 106.91434057143 710.40228571429 108.99434057143 713.34628571429 109.50634057143 L 724.96228571429 111.61834057143 C 733.15428571429 113.15434057143 737.25028571429 118.65834057143 737.25028571429 128.13034057143 Z M 788.80228571429 118.81834057143 L 756.83428571429 118.81834057143 C 756.83428571429 123.81034057143 757.61828571429 127.45834057143 759.18628571429 129.76234057143 C 760.75428571429 132.06634057143 763.90628571429 133.21834057143 768.64228571429 133.21834057143 C 771.71428571429 133.21834057143 773.98628571429 132.24234057143 775.45828571429 130.29034057143 C 776.93028571429 128.33834057143 777.66628571429 126.46634057143 777.66628571429 124.67434057143 L 788.89828571429 124.67434057143 C 788.89828571429 131.52234057143 787.05828571429 136.54634057143 783.37828571429 139.74634057143 C 779.69828571429 142.94634057143 774.83428571429 144.54634057143 768.78628571429 144.54634057143 C 762.73828571429 144.54634057143 758.05028571429 143.68234057143 754.72228571429 141.95434057143 C 747.87428571429 138.43434057143 744.45028571429 129.09034057143 744.45028571429 113.92234057143 C 744.45028571429 104.89834057143 746.40228571429 98.29034057143 750.30628571429 94.09834057143 C 754.21028571429 89.90634057143 760.16228571429 87.81034057143 768.16228571429 87.81034057143 C 782.05028571429 87.81034057143 788.99428571429 95.52234057143 788.99428571429 110.94634057143 C 788.99428571429 112.61034057143 788.93028571429 115.23434057143 788.80228571429 118.81834057143 Z M 757.12228571429 110.27434057143 L 777.66628571429 110.27434057143 C 777.66628571429 106.05034057143 776.86628571429 102.97834057143 775.26628571429 101.05834057143 C 773.66628571429 99.13834057143 771.21828571429 98.17834057143 767.92228571429 98.17834057143 C 764.62628571429 98.17834057143 762.00228571429 99.15434057143 760.05028571429 101.10634057143 C 758.09828571429 103.05834057143 757.12228571429 106.11434057143 757.12228571429 110.27434057143 Z"/></svg>