<svg width="1000" height="1000" viewBox="0 0 1000 1000" xmlns="http://www.w3.org/2000/svg"><defs/><path fill="#ff6600" transform="matrix(0.23060880986025187 0 0 0.23060880986025187 56.47331335625752 28.831696574109902)" d="M 544.06423972015 1954.34962516574 C 544.06423972015 1957.24962516574 546.46423972015 1959.64962516574 549.36423972015 1959.64962516574 C 552.26423972015 1959.64962516574 554.56423972015 1957.24962516574 554.56423972015 1954.34962516574 C 554.56423972015 1951.44962516574 552.16423972015 1949.14962516574 549.36423972015 1949.14962516574 C 546.36423972015 1949.14962516574 544.06423972015 1951.44962516574 544.06423972015 1954.34962516574 Z"/><path fill="#ff6600" transform="matrix(0.23060880986025187 0 0 0.23060880986025187 56.47331335625752 28.831696574109902)" d="M 472.46423972015 1986.44962516574 C 472.46423972015 1989.34962516574 474.86423972015 1991.74962516574 477.76423972015 1991.74962516574 C 480.66423972015 1991.74962516574 483.06423972015 1989.34962516574 483.06423972015 1986.44962516574 C 483.06423972015 1983.54962516574 480.66423972015 1981.24962516574 477.76423972015 1981.24962516574 C 474.86423972015 1981.24962516574 472.46423972015 1983.54962516574 472.46423972015 1986.44962516574 Z"/><path fill="#ff6600" transform="matrix(0.23060880986025187 0 0 0.23060880986025187 56.47331335625752 28.831696574109902)" d="M 544.96423972015 2137.14962516574 L 531.76423972015 2149.14962516574 C 531.06423972015 2149.84962516574 530.06423972015 2150.14962516574 529.16423972015 2150.14962516574 L 508.16423972015 2150.14962516574 C 507.06423972015 2150.14962516574 505.96423972015 2149.64962516574 505.26423972015 2148.84962516574 L 494.66423972015 2137.04962516574 L 480.76423972015 2137.04962516574 C 479.16423972015 2141.74962516574 474.66423972015 2145.14962516574 469.36423972015 2145.14962516574 C 462.66423972015 2145.14962516574 457.26423972015 2139.74962516574 457.26423972015 2133.04962516574 C 457.26423972015 2126.34962516574 462.66423972015 2120.94962516574 469.36423972015 2120.94962516574 C 474.66423972015 2120.94962516574 479.16423972015 2124.34962516574 480.76423972015 2129.04962516574 L 496.36423972015 2129.04962516574 C 497.46423972015 2129.04962516574 498.56423972015 2129.54962516574 499.26423972015 2130.34962516574 L 509.86423972015 2142.14962516574 L 527.46423972015 2142.14962516574 L 540.66423972015 2130.14962516574 C 541.36423972015 2129.44962516574 542.36423972015 2129.14962516574 543.26423972015 2129.14962516574 L 575.56423972015 2129.14962516574 L 575.56423972015 2092.04962516574 L 531.76423972015 2092.04962516574 C 530.16423972015 2096.74962516574 525.66423972015 2100.14962516574 520.36423972015 2100.14962516574 C 513.66423972015 2100.14962516574 508.26423972015 2094.74962516574 508.26423972015 2088.04962516574 C 508.26423972015 2081.34962516574 513.66423972015 2075.94962516574 520.36423972015 2075.94962516574 C 525.66423972015 2075.94962516574 530.16423972015 2079.34962516574 531.76423972015 2084.04962516574 L 575.56423972015 2084.04962516574 L 575.56423972015 2047.14962516574 L 506.16423972015 2047.14962516574 C 504.56423972015 2051.84962516574 500.06423972015 2055.24962516574 494.76423972015 2055.24962516574 C 488.06423972015 2055.24962516574 482.66423972015 2049.84962516574 482.66423972015 2043.14962516574 C 482.66423972015 2036.44962516574 488.06423972015 2031.04962516574 494.76423972015 2031.04962516574 C 500.06423972015 2031.04962516574 504.56423972015 2034.44962516574 506.16423972015 2039.14962516574 L 575.76423972015 2039.14962516574 L 575.76423972015 2002.24962516574 L 530.76423972015 2002.24962516574 C 529.86423972015 2002.24962516574 528.96423972015 2001.94962516574 528.26423972015 2001.34962516574 L 514.06423972015 1990.34962516574 L 489.16423972015 1990.34962516574 C 487.56423972015 1995.04962516574 483.06423972015 1998.44962516574 477.76423972015 1998.44962516574 C 471.06423972015 1998.44962516574 465.66423972015 1993.04962516574 465.66423972015 1986.34962516574 C 465.66423972015 1979.74962516574 471.06423972015 1974.24962516574 477.76423972015 1974.24962516574 C 483.06423972015 1974.24962516574 487.56423972015 1977.64962516574 489.16423972015 1982.34962516574 L 515.46423972015 1982.34962516574 C 516.36423972015 1982.34962516574 517.26423972015 1982.64962516574 517.96423972015 1983.24962516574 L 532.26423972015 1994.74962516574 L 575.86423972015 1994.74962516574 L 575.86423972015 1958.04962516574 L 560.76423972015 1958.04962516574 C 559.16423972015 1962.74962516574 554.66423972015 1966.14962516574 549.36423972015 1966.14962516574 C 542.66423972015 1966.14962516574 537.26423972015 1960.74962516574 537.26423972015 1954.04962516574 C 537.26423972015 1947.44962516574 542.66423972015 1941.94962516574 549.36423972015 1941.94962516574 C 554.66423972015 1941.94962516574 559.16423972015 1945.34962516574 560.76423972015 1950.04962516574 L 575.86423972015 1950.04962516574 L 575.86423972015 1871.44962516574 L 574.66423972015 1870.14962516574 C 565.06423972015 1860.04962516574 552.06423972015 1854.44962516574 538.06423972015 1854.44962516574 C 519.36423972015 1854.44962516574 502.16423972015 1864.84962516574 493.46423972015 1881.24962516574 C 462.56423972015 1882.24962516574 437.76423972015 1907.74962516574 437.76423972015 1938.84962516574 C 437.76423972015 1944.24962516574 438.56423972015 1949.44962516574 439.86423972015 1954.44962516574 C 418.36423972015 1969.44962516574 405.56423972015 1993.74962516574 405.56423972015 2020.14962516574 C 405.56423972015 2041.94962516574 414.46423972015 2062.74962516574 430.06423972015 2077.84962516574 C 427.06423972015 2086.24962516574 425.56423972015 2095.24962516574 425.56423972015 2104.34962516574 C 425.56423972015 2135.34962516574 443.46423972015 2163.54962516574 471.36423972015 2176.74962516574 C 474.06423972015 2207.74962516574 499.96423972015 2231.64962516574 531.36423972015 2231.64962516574 C 547.76423972015 2231.64962516574 563.16423972015 2225.14962516574 574.56423972015 2213.34962516574 L 575.76423972015 2212.04962516574 L 575.76423972015 2136.54962516574 L 544.96423972015 2136.54962516574 Z"/><path fill="#ff6600" transform="matrix(0.23060880986025187 0 0 0.23060880986025187 56.47331335625752 28.831696574109902)" d="M 464.16423972015 2133.24962516574 C 464.16423972015 2136.14962516574 466.56423972015 2138.54962516574 469.36423972015 2138.54962516574 C 472.26423972015 2138.54962516574 474.56423972015 2136.14962516574 474.56423972015 2133.24962516574 C 474.56423972015 2130.34962516574 472.16423972015 2127.94962516574 469.36423972015 2127.94962516574 C 466.46423972015 2127.94962516574 464.16423972015 2130.34962516574 464.16423972015 2133.24962516574 Z"/><path fill="#ff6600" transform="matrix(0.23060880986025187 0 0 0.23060880986025187 56.47331335625752 28.831696574109902)" d="M 515.26423972015 2088.34962516574 C 515.26423972015 2091.24962516574 517.66423972015 2093.64962516574 520.56423972015 2093.64962516574 C 523.46423972015 2093.64962516574 525.86423972015 2091.24962516574 525.86423972015 2088.34962516574 C 525.86423972015 2085.44962516574 523.46423972015 2083.04962516574 520.56423972015 2083.04962516574 C 517.66423972015 2083.04962516574 515.26423972015 2085.44962516574 515.26423972015 2088.34962516574 Z"/><path fill="#ff6600" transform="matrix(0.23060880986025187 0 0 0.23060880986025187 56.47331335625752 28.831696574109902)" d="M 489.46423972015 2043.64962516574 C 489.46423972015 2046.54962516574 491.86423972015 2048.84962516574 494.76423972015 2048.84962516574 C 497.66423972015 2048.84962516574 499.96423972015 2046.44962516574 499.96423972015 2043.64962516574 C 499.96423972015 2040.74962516574 497.56423972015 2038.34962516574 494.76423972015 2038.34962516574 C 491.86423972015 2038.34962516574 489.46423972015 2040.74962516574 489.46423972015 2043.64962516574 Z"/><path fill="#ff6600" transform="matrix(0.23060880986025187 0 0 0.23060880986025187 56.47331335625752 28.831696574109902)" d="M 620.26423972015 1954.34962516574 C 620.26423972015 1957.24962516574 617.86423972015 1959.64962516574 614.96423972015 1959.64962516574 C 612.06423972015 1959.64962516574 609.76423972015 1957.24962516574 609.76423972015 1954.34962516574 C 609.76423972015 1951.44962516574 612.16423972015 1949.14962516574 614.96423972015 1949.14962516574 C 617.96423972015 1949.14962516574 620.26423972015 1951.44962516574 620.26423972015 1954.34962516574 Z"/><path fill="#ff6600" transform="matrix(0.23060880986025187 0 0 0.23060880986025187 56.47331335625752 28.831696574109902)" d="M 691.86423972015 1986.44962516574 C 691.86423972015 1989.34962516574 689.46423972015 1991.74962516574 686.56423972015 1991.74962516574 C 683.66423972015 1991.74962516574 681.26423972015 1989.34962516574 681.26423972015 1986.44962516574 C 681.26423972015 1983.54962516574 683.66423972015 1981.24962516574 686.56423972015 1981.24962516574 C 689.46423972015 1981.24962516574 691.86423972015 1983.54962516574 691.86423972015 1986.44962516574 Z"/><path fill="#ff6600" transform="matrix(0.23060880986025187 0 0 0.23060880986025187 56.47331335625752 28.831696574109902)" d="M 619.36423972015 2137.14962516574 L 632.56423972015 2149.14962516574 C 633.26423972015 2149.84962516574 634.26423972015 2150.14962516574 635.16423972015 2150.14962516574 L 656.16423972015 2150.14962516574 C 657.26423972015 2150.14962516574 658.36423972015 2149.64962516574 659.06423972015 2148.84962516574 L 669.66423972015 2137.04962516574 L 683.56423972015 2137.04962516574 C 685.16423972015 2141.74962516574 689.66423972015 2145.14962516574 694.96423972015 2145.14962516574 C 701.66423972015 2145.14962516574 707.06423972015 2139.74962516574 707.06423972015 2133.04962516574 C 707.06423972015 2126.34962516574 701.66423972015 2120.94962516574 694.96423972015 2120.94962516574 C 689.66423972015 2120.94962516574 685.16423972015 2124.34962516574 683.56423972015 2129.04962516574 L 667.96423972015 2129.04962516574 C 666.86423972015 2129.04962516574 665.76423972015 2129.54962516574 665.06423972015 2130.34962516574 L 654.36423972015 2142.34962516574 L 636.76423972015 2142.34962516574 L 623.56423972015 2130.34962516574 C 622.86423972015 2129.64962516574 621.86423972015 2129.34962516574 620.96423972015 2129.34962516574 L 588.66423972015 2129.34962516574 L 588.66423972015 2092.24962516574 L 632.46423972015 2092.24962516574 C 634.06423972015 2096.94962516574 638.56423972015 2100.34962516574 643.86423972015 2100.34962516574 C 650.56423972015 2100.34962516574 655.96423972015 2094.94962516574 655.96423972015 2088.24962516574 C 655.96423972015 2081.54962516574 650.56423972015 2076.14962516574 643.86423972015 2076.14962516574 C 638.56423972015 2076.14962516574 634.06423972015 2079.54962516574 632.46423972015 2084.24962516574 L 588.66423972015 2084.24962516574 L 588.66423972015 2047.34962516574 L 658.16423972015 2047.34962516574 C 659.76423972015 2052.04962516574 664.26423972015 2055.44962516574 669.56423972015 2055.44962516574 C 676.26423972015 2055.44962516574 681.66423972015 2050.04962516574 681.66423972015 2043.34962516574 C 681.66423972015 2036.64962516574 676.26423972015 2031.24962516574 669.56423972015 2031.24962516574 C 664.26423972015 2031.24962516574 659.76423972015 2034.64962516574 658.16423972015 2039.34962516574 L 588.56423972015 2039.34962516574 L 588.56423972015 2002.44962516574 L 633.56423972015 2002.44962516574 C 634.46423972015 2002.44962516574 635.36423972015 2002.14962516574 636.06423972015 2001.54962516574 L 650.36423972015 1990.04962516574 L 675.16423972015 1990.04962516574 C 676.76423972015 1994.74962516574 681.26423972015 1998.14962516574 686.56423972015 1998.14962516574 C 693.26423972015 1998.14962516574 698.66423972015 1992.74962516574 698.66423972015 1986.04962516574 C 698.66423972015 1979.44962516574 693.26423972015 1973.94962516574 686.56423972015 1973.94962516574 C 681.26423972015 1973.94962516574 676.76423972015 1977.34962516574 675.16423972015 1982.04962516574 L 648.86423972015 1982.04962516574 C 647.96423972015 1982.04962516574 647.06423972015 1982.34962516574 646.36423972015 1982.94962516574 L 632.16423972015 1994.94962516574 L 588.56423972015 1994.94962516574 L 588.56423972015 1958.24962516574 L 603.66423972015 1958.24962516574 C 605.26423972015 1962.94962516574 609.76423972015 1966.34962516574 615.06423972015 1966.34962516574 C 621.76423972015 1966.34962516574 627.16423972015 1960.94962516574 627.16423972015 1954.24962516574 C 627.16423972015 1947.64962516574 621.76423972015 1942.14962516574 615.06423972015 1942.14962516574 C 609.76423972015 1942.14962516574 605.26423972015 1945.54962516574 603.66423972015 1950.24962516574 L 588.56423972015 1950.24962516574 L 588.56423972015 1871.64962516574 L 589.76423972015 1870.34962516574 C 599.36423972015 1860.24962516574 612.36423972015 1854.64962516574 626.36423972015 1854.64962516574 C 645.06423972015 1854.64962516574 662.26423972015 1865.04962516574 670.96423972015 1881.44962516574 C 701.86423972015 1882.44962516574 726.66423972015 1907.94962516574 726.66423972015 1939.04962516574 C 726.66423972015 1944.44962516574 725.86423972015 1949.64962516574 724.56423972015 1954.64962516574 C 746.06423972015 1969.64962516574 758.86423972015 1993.94962516574 758.86423972015 2020.34962516574 C 758.86423972015 2042.14962516574 749.96423972015 2062.94962516574 734.36423972015 2078.04962516574 C 737.36423972015 2086.44962516574 738.86423972015 2095.44962516574 738.86423972015 2104.54962516574 C 738.86423972015 2135.54962516574 720.96423972015 2163.74962516574 693.06423972015 2176.94962516574 C 690.36423972015 2207.94962516574 664.46423972015 2231.84962516574 633.06423972015 2231.84962516574 C 616.66423972015 2231.84962516574 601.26423972015 2225.34962516574 589.86423972015 2213.54962516574 L 588.66423972015 2212.24962516574 L 588.66423972015 2136.74962516574 L 619.36423972015 2136.74962516574 Z"/><path fill="#ff6600" transform="matrix(0.23060880986025187 0 0 0.23060880986025187 56.47331335625752 28.831696574109902)" d="M 700.16423972015 2133.24962516574 C 700.16423972015 2136.14962516574 697.76423972015 2138.54962516574 694.96423972015 2138.54962516574 C 692.06423972015 2138.54962516574 689.76423972015 2136.14962516574 689.76423972015 2133.24962516574 C 689.76423972015 2130.34962516574 692.16423972015 2127.94962516574 694.96423972015 2127.94962516574 C 697.86423972015 2127.94962516574 700.16423972015 2130.34962516574 700.16423972015 2133.24962516574 Z"/><path fill="#ff6600" transform="matrix(0.23060880986025187 0 0 0.23060880986025187 56.47331335625752 28.831696574109902)" d="M 649.06423972015 2088.34962516574 C 649.06423972015 2091.24962516574 646.66423972015 2093.64962516574 643.76423972015 2093.64962516574 C 640.86423972015 2093.64962516574 638.46423972015 2091.24962516574 638.46423972015 2088.34962516574 C 638.46423972015 2085.44962516574 640.86423972015 2083.04962516574 643.76423972015 2083.04962516574 C 646.66423972015 2083.04962516574 649.06423972015 2085.44962516574 649.06423972015 2088.34962516574 Z"/><path fill="#ff6600" transform="matrix(0.23060880986025187 0 0 0.23060880986025187 56.47331335625752 28.831696574109902)" d="M 674.86423972015 2043.64962516574 C 674.86423972015 2046.54962516574 672.46423972015 2048.84962516574 669.56423972015 2048.84962516574 C 666.66423972015 2048.84962516574 664.36423972015 2046.44962516574 664.36423972015 2043.64962516574 C 664.36423972015 2040.74962516574 666.76423972015 2038.34962516574 669.56423972015 2038.34962516574 C 672.46423972015 2038.34962516574 674.86423972015 2040.74962516574 674.86423972015 2043.64962516574 Z"/><path id="text" fill="#334389" transform="matrix(0.7332850118273537 0 0 0.7332850118273537 174.008248300997 34.63951205292088)" d="M 123.02392872757 657.82742583958 C 122.64892872757 661.57742583958 120.58642872757 663.60867583958 116.83642872757 663.92117583958 C 115.08642872757 663.92117583958 113.57080372757 663.34305083958 112.28955372757 662.18680083958 C 111.00830372757 661.03055083958 110.36767872757 659.57742583958 110.36767872757 657.82742583958 L 110.36767872757 613.57742583958 C 110.43017872757 611.82742583958 111.08642872757 610.37430083958 112.33642872757 609.21805083958 C 113.58642872757 608.06180083958 115.08642872757 607.48367583958 116.83642872757 607.48367583958 L 156.21142872757 607.48367583958 C 161.71142872757 607.67117583958 165.86767872757 608.87430083958 168.68017872757 611.09305083958 C 171.49267872757 613.31180083958 173.52392872757 615.82742583958 174.77392872757 618.63992583958 C 176.02392872757 621.45242583958 176.64892872757 624.29617583958 176.64892872757 627.17117583958 C 176.64892872757 630.17117583958 176.03955372757 633.07742583958 174.82080372757 635.88992583958 C 173.60205372757 638.70242583958 171.57080372757 641.21805083958 168.72705372757 643.43680083958 C 165.88330372757 645.65555083958 162.27392872757 646.73367583958 157.89892872757 646.67117583958 L 134.27392872757 646.67117583958 C 132.52392872757 646.67117583958 131.05517872757 646.04617583958 129.86767872757 644.79617583958 C 128.61767872757 643.60867583958 127.99267872757 642.13992583958 127.99267872757 640.38992583958 C 127.99267872757 638.63992583958 128.60205372757 637.15555083958 129.82080372757 635.93680083958 C 131.03955372757 634.71805083958 132.52392872757 634.10867583958 134.27392872757 634.10867583958 L 158.46142872757 634.10867583958 C 159.64892872757 634.10867583958 160.63330372757 633.71805083958 161.41455372757 632.93680083958 C 162.19580372757 632.15555083958 162.77392872757 631.24930083958 163.14892872757 630.21805083958 C 163.52392872757 629.18680083958 163.71142872757 628.13992583958 163.71142872757 627.07742583958 C 163.71142872757 626.07742583958 163.52392872757 625.06180083958 163.14892872757 624.03055083958 C 162.77392872757 622.99930083958 162.19580372757 622.09305083958 161.41455372757 621.31180083958 C 160.63330372757 620.53055083958 159.64892872757 620.10867583958 158.46142872757 620.04617583958 L 125.46142872757 620.04617583958 C 123.83642872757 620.10867583958 123.02392872757 620.92117583958 123.02392872757 622.48367583958 L 123.02392872757 657.82742583958 Z M 199.24267872757 658.01492583958 C 198.86767872757 661.76492583958 196.80517872757 663.79617583958 193.05517872757 664.10867583958 C 191.30517872757 664.10867583958 189.78955372757 663.53055083958 188.50830372757 662.37430083958 C 187.22705372757 661.21805083958 186.58642872757 659.76492583958 186.58642872757 658.01492583958 L 186.58642872757 613.57742583958 C 186.64892872757 611.82742583958 187.30517872757 610.37430083958 188.55517872757 609.21805083958 C 189.80517872757 608.06180083958 191.30517872757 607.48367583958 193.05517872757 607.48367583958 L 197.64892872757 607.48367583958 L 209.18017872757 607.48367583958 L 232.33642872757 607.48367583958 C 232.71142872757 607.48367583958 233.08642872757 607.51492583958 233.46142872757 607.57742583958 L 234.02392872757 607.57742583958 C 238.39892872757 607.70242583958 241.99267872757 608.70242583958 244.80517872757 610.57742583958 C 247.61767872757 612.45242583958 249.64892872757 614.59305083958 250.89892872757 616.99930083958 C 252.14892872757 619.40555083958 252.77392872757 621.82742583958 252.77392872757 624.26492583958 C 252.77392872757 626.76492583958 252.16455372757 629.21805083958 250.94580372757 631.62430083958 C 249.72705372757 634.03055083958 247.69580372757 636.17117583958 244.85205372757 638.04617583958 C 242.00830372757 639.92117583958 238.39892872757 640.92117583958 234.02392872757 641.04617583958 L 217.52392872757 641.04617583958 C 218.02392872757 644.17117583958 219.05517872757 646.48367583958 220.61767872757 647.98367583958 C 222.11767872757 649.48367583958 224.02392872757 650.23367583958 226.33642872757 650.23367583958 L 246.58642872757 650.23367583958 C 248.33642872757 650.29617583958 249.78955372757 650.95242583958 250.94580372757 652.20242583958 C 252.10205372757 653.45242583958 252.68017872757 654.95242583958 252.68017872757 656.70242583958 C 252.61767872757 658.38992583958 252.00830372757 659.81180083958 250.85205372757 660.96805083958 C 249.69580372757 662.12430083958 248.27392872757 662.73367583958 246.58642872757 662.79617583958 L 224.64892872757 662.79617583958 C 220.02392872757 662.85867583958 215.83642872757 661.04617583958 212.08642872757 657.35867583958 C 208.33642872757 653.67117583958 206.05517872757 649.29617583958 205.24267872757 644.23367583958 C 204.11767872757 638.60867583958 203.55517872757 635.45242583958 203.55517872757 634.76492583958 C 203.55517872757 633.01492583958 204.16455372757 631.53055083958 205.38330372757 630.31180083958 C 206.60205372757 629.09305083958 208.08642872757 628.48367583958 209.83642872757 628.48367583958 L 234.58642872757 628.48367583958 C 235.77392872757 628.42117583958 236.75830372757 628.15555083958 237.53955372757 627.68680083958 C 238.32080372757 627.21805083958 238.89892872757 626.68680083958 239.27392872757 626.09305083958 C 239.64892872757 625.49930083958 239.83642872757 624.88992583958 239.83642872757 624.26492583958 C 239.83642872757 623.63992583958 239.64892872757 623.03055083958 239.27392872757 622.43680083958 C 238.89892872757 621.84305083958 238.32080372757 621.31180083958 237.53955372757 620.84305083958 C 236.75830372757 620.37430083958 235.77392872757 620.10867583958 234.58642872757 620.04617583958 L 209.18017872757 620.04617583958 L 201.68017872757 620.04617583958 C 200.05517872757 620.10867583958 199.24267872757 620.92117583958 199.24267872757 622.48367583958 L 199.24267872757 658.01492583958 Z M 313.24267872757 607.48367583958 C 316.43017872757 607.54617583958 319.27392872757 608.54617583958 321.77392872757 610.48367583958 C 324.27392872757 612.42117583958 326.28955372757 614.73367583958 327.82080372757 617.42117583958 C 329.35205372757 620.10867583958 330.49267872757 622.95242583958 331.24267872757 625.95242583958 C 331.99267872757 628.95242583958 332.36767872757 632.01492583958 332.36767872757 635.13992583958 C 332.36767872757 639.26492583958 331.72705372757 643.31180083958 330.44580372757 647.28055083958 C 329.16455372757 651.24930083958 327.07080372757 654.76492583958 324.16455372757 657.82742583958 C 321.25830372757 660.88992583958 317.61767872757 662.54617583958 313.24267872757 662.79617583958 L 280.52392872757 662.79617583958 C 276.14892872757 662.60867583958 272.49267872757 660.98367583958 269.55517872757 657.92117583958 C 266.61767872757 654.85867583958 264.53955372757 651.32742583958 263.32080372757 647.32742583958 C 262.10205372757 643.32742583958 261.49267872757 639.26492583958 261.49267872757 635.13992583958 C 261.49267872757 631.01492583958 262.11767872757 626.96805083958 263.36767872757 622.99930083958 C 264.61767872757 619.03055083958 266.69580372757 615.49930083958 269.60205372757 612.40555083958 C 272.50830372757 609.31180083958 276.14892872757 607.67117583958 280.52392872757 607.48367583958 L 282.30517872757 607.48367583958 L 311.46142872757 607.48367583958 L 313.24267872757 607.48367583958 Z M 310.05517872757 650.23367583958 C 312.43017872757 650.10867583958 314.41455372757 649.21805083958 316.00830372757 647.56180083958 C 317.60205372757 645.90555083958 318.74267872757 643.98367583958 319.43017872757 641.79617583958 C 320.11767872757 639.60867583958 320.46142872757 637.38992583958 320.46142872757 635.13992583958 C 320.46142872757 632.88992583958 320.10205372757 630.68680083958 319.38330372757 628.53055083958 C 318.66455372757 626.37430083958 317.52392872757 624.45242583958 315.96142872757 622.76492583958 C 314.39892872757 621.07742583958 312.43017872757 620.17117583958 310.05517872757 620.04617583958 L 283.43017872757 620.04617583958 C 281.05517872757 620.17117583958 279.08642872757 621.07742583958 277.52392872757 622.76492583958 C 275.96142872757 624.45242583958 274.82080372757 626.37430083958 274.10205372757 628.53055083958 C 273.38330372757 630.68680083958 273.02392872757 632.88992583958 273.02392872757 635.13992583958 C 273.02392872757 637.38992583958 273.36767872757 639.60867583958 274.05517872757 641.79617583958 C 274.74267872757 643.98367583958 275.88330372757 645.90555083958 277.47705372757 647.56180083958 C 279.07080372757 649.21805083958 281.05517872757 650.10867583958 283.43017872757 650.23367583958 L 310.05517872757 650.23367583958 Z M 362.46142872757 604.95242583958 C 364.64892872757 604.95242583958 366.78955372757 605.32742583958 368.88330372757 606.07742583958 C 370.97705372757 606.82742583958 372.99267872757 607.92117583958 374.93017872757 609.35867583958 C 375.24267872757 609.67117583958 375.58642872757 609.98367583958 375.96142872757 610.29617583958 C 376.27392872757 609.98367583958 376.61767872757 609.67117583958 376.99267872757 609.35867583958 C 378.93017872757 607.92117583958 380.94580372757 606.82742583958 383.03955372757 606.07742583958 C 385.13330372757 605.32742583958 387.24267872757 604.95242583958 389.36767872757 604.95242583958 C 391.55517872757 604.95242583958 393.69580372757 605.32742583958 395.78955372757 606.07742583958 C 397.88330372757 606.82742583958 399.88330372757 607.93680083958 401.78955372757 609.40555083958 C 403.69580372757 610.87430083958 405.38330372757 612.82742583958 406.85205372757 615.26492583958 C 408.32080372757 617.70242583958 409.05517872757 620.60867583958 409.05517872757 623.98367583958 L 409.05517872757 657.82742583958 C 408.68017872757 661.57742583958 406.61767872757 663.60867583958 402.86767872757 663.92117583958 C 401.11767872757 663.92117583958 399.60205372757 663.34305083958 398.32080372757 662.18680083958 C 397.03955372757 661.03055083958 396.39892872757 659.57742583958 396.39892872757 657.82742583958 L 396.39892872757 624.73367583958 C 396.39892872757 623.23367583958 396.11767872757 621.96805083958 395.55517872757 620.93680083958 C 394.99267872757 619.90555083958 394.36767872757 619.09305083958 393.68017872757 618.49930083958 C 392.99267872757 617.90555083958 392.27392872757 617.46805083958 391.52392872757 617.18680083958 C 390.77392872757 616.90555083958 390.02392872757 616.76492583958 389.27392872757 616.76492583958 C 388.52392872757 616.76492583958 387.78955372757 616.90555083958 387.07080372757 617.18680083958 C 386.35205372757 617.46805083958 385.64892872757 617.90555083958 384.96142872757 618.49930083958 C 384.27392872757 619.09305083958 383.64892872757 619.90555083958 383.08642872757 620.93680083958 C 382.52392872757 621.96805083958 382.21142872757 623.23367583958 382.14892872757 624.73367583958 L 382.14892872757 657.82742583958 C 381.77392872757 661.57742583958 379.71142872757 663.60867583958 375.96142872757 663.92117583958 C 374.21142872757 663.92117583958 372.69580372757 663.34305083958 371.41455372757 662.18680083958 C 370.13330372757 661.03055083958 369.49267872757 659.57742583958 369.49267872757 657.82742583958 L 369.49267872757 624.73367583958 C 369.49267872757 623.23367583958 369.21142872757 621.96805083958 368.64892872757 620.93680083958 C 368.08642872757 619.90555083958 367.46142872757 619.09305083958 366.77392872757 618.49930083958 C 366.08642872757 617.90555083958 365.36767872757 617.46805083958 364.61767872757 617.18680083958 C 363.86767872757 616.90555083958 363.11767872757 616.76492583958 362.36767872757 616.76492583958 C 361.61767872757 616.76492583958 360.88330372757 616.90555083958 360.16455372757 617.18680083958 C 359.44580372757 617.46805083958 358.74267872757 617.90555083958 358.05517872757 618.49930083958 C 357.36767872757 619.09305083958 356.74267872757 619.90555083958 356.18017872757 620.93680083958 C 355.61767872757 621.96805083958 355.30517872757 623.23367583958 355.24267872757 624.73367583958 L 355.24267872757 657.82742583958 C 354.93017872757 661.57742583958 352.89892872757 663.60867583958 349.14892872757 663.92117583958 C 347.39892872757 663.92117583958 345.88330372757 663.34305083958 344.60205372757 662.18680083958 C 343.32080372757 661.03055083958 342.68017872757 659.57742583958 342.68017872757 657.82742583958 L 342.68017872757 623.98367583958 C 342.80517872757 620.60867583958 343.58642872757 617.70242583958 345.02392872757 615.26492583958 C 346.46142872757 612.82742583958 348.14892872757 610.87430083958 350.08642872757 609.40555083958 C 352.02392872757 607.93680083958 354.03955372757 606.82742583958 356.13330372757 606.07742583958 C 358.22705372757 605.32742583958 360.33642872757 604.95242583958 362.46142872757 604.95242583958 Z M 433.52392872757 657.82742583958 C 433.14892872757 661.57742583958 431.08642872757 663.60867583958 427.33642872757 663.92117583958 C 425.58642872757 663.92117583958 424.07080372757 663.34305083958 422.78955372757 662.18680083958 C 421.50830372757 661.03055083958 420.86767872757 659.57742583958 420.86767872757 657.82742583958 L 420.86767872757 613.57742583958 C 420.93017872757 611.82742583958 421.58642872757 610.37430083958 422.83642872757 609.21805083958 C 424.08642872757 608.06180083958 425.58642872757 607.48367583958 427.33642872757 607.48367583958 L 466.71142872757 607.48367583958 C 472.21142872757 607.67117583958 476.36767872757 608.87430083958 479.18017872757 611.09305083958 C 481.99267872757 613.31180083958 484.02392872757 615.82742583958 485.27392872757 618.63992583958 C 486.52392872757 621.45242583958 487.14892872757 624.29617583958 487.14892872757 627.17117583958 C 487.14892872757 630.17117583958 486.53955372757 633.07742583958 485.32080372757 635.88992583958 C 484.10205372757 638.70242583958 482.07080372757 641.21805083958 479.22705372757 643.43680083958 C 476.38330372757 645.65555083958 472.77392872757 646.73367583958 468.39892872757 646.67117583958 L 444.77392872757 646.67117583958 C 443.02392872757 646.67117583958 441.55517872757 646.04617583958 440.36767872757 644.79617583958 C 439.11767872757 643.60867583958 438.49267872757 642.13992583958 438.49267872757 640.38992583958 C 438.49267872757 638.63992583958 439.10205372757 637.15555083958 440.32080372757 635.93680083958 C 441.53955372757 634.71805083958 443.02392872757 634.10867583958 444.77392872757 634.10867583958 L 468.96142872757 634.10867583958 C 470.14892872757 634.10867583958 471.13330372757 633.71805083958 471.91455372757 632.93680083958 C 472.69580372757 632.15555083958 473.27392872757 631.24930083958 473.64892872757 630.21805083958 C 474.02392872757 629.18680083958 474.21142872757 628.13992583958 474.21142872757 627.07742583958 C 474.21142872757 626.07742583958 474.02392872757 625.06180083958 473.64892872757 624.03055083958 C 473.27392872757 622.99930083958 472.69580372757 622.09305083958 471.91455372757 621.31180083958 C 471.13330372757 620.53055083958 470.14892872757 620.10867583958 468.96142872757 620.04617583958 L 435.96142872757 620.04617583958 C 434.33642872757 620.10867583958 433.52392872757 620.92117583958 433.52392872757 622.48367583958 L 433.52392872757 657.82742583958 Z M 495.30517872757 613.76492583958 C 495.30517872757 612.01492583958 495.91455372757 610.53055083958 497.13330372757 609.31180083958 C 498.35205372757 608.09305083958 499.83642872757 607.48367583958 501.58642872757 607.48367583958 L 556.14892872757 607.48367583958 C 557.89892872757 607.48367583958 559.39892872757 608.07742583958 560.64892872757 609.26492583958 C 561.83642872757 610.51492583958 562.43017872757 612.01492583958 562.43017872757 613.76492583958 C 562.43017872757 615.51492583958 561.82080372757 616.99930083958 560.60205372757 618.21805083958 C 559.38330372757 619.43680083958 557.89892872757 620.04617583958 556.14892872757 620.04617583958 L 535.24267872757 620.04617583958 L 535.24267872757 658.01492583958 C 534.86767872757 661.76492583958 532.80517872757 663.79617583958 529.05517872757 664.10867583958 C 527.30517872757 664.10867583958 525.78955372757 663.53055083958 524.50830372757 662.37430083958 C 523.22705372757 661.21805083958 522.58642872757 659.76492583958 522.58642872757 658.01492583958 L 522.58642872757 620.04617583958 L 501.58642872757 620.04617583958 C 499.83642872757 620.04617583958 498.36767872757 619.42117583958 497.18017872757 618.17117583958 C 495.93017872757 616.98367583958 495.30517872757 615.51492583958 495.30517872757 613.76492583958 Z M 590.18017872757 657.82742583958 C 587.30517872757 653.51492583958 584.43017872757 647.85867583958 581.55517872757 640.85867583958 L 571.24267872757 614.23367583958 C 570.93017872757 613.54617583958 570.74267872757 612.79617583958 570.68017872757 611.98367583958 C 570.55517872757 610.23367583958 571.07080372757 608.73367583958 572.22705372757 607.48367583958 C 573.38330372757 606.23367583958 574.86767872757 605.60867583958 576.68017872757 605.60867583958 C 578.61767872757 605.60867583958 580.07080372757 606.03055083958 581.03955372757 606.87430083958 C 582.00830372757 607.71805083958 582.80517872757 608.79617583958 583.43017872757 610.10867583958 L 592.33642872757 634.48367583958 C 593.33642872757 637.04617583958 594.32080372757 639.46805083958 595.28955372757 641.74930083958 C 596.25830372757 644.03055083958 597.33642872757 646.10867583958 598.52392872757 647.98367583958 C 599.71142872757 649.85867583958 601.05517872757 650.85867583958 602.55517872757 650.98367583958 C 603.99267872757 650.85867583958 605.27392872757 649.85867583958 606.39892872757 647.98367583958 C 607.64892872757 646.10867583958 608.75830372757 644.03055083958 609.72705372757 641.74930083958 C 610.69580372757 639.46805083958 611.68017872757 637.04617583958 612.68017872757 634.48367583958 L 621.39892872757 610.10867583958 C 622.02392872757 608.79617583958 622.82080372757 607.71805083958 623.78955372757 606.87430083958 C 624.75830372757 606.03055083958 626.27392872757 605.60867583958 628.33642872757 605.60867583958 C 630.14892872757 605.60867583958 631.63330372757 606.23367583958 632.78955372757 607.48367583958 C 633.94580372757 608.73367583958 634.46142872757 610.23367583958 634.33642872757 611.98367583958 C 634.27392872757 612.79617583958 634.08642872757 613.54617583958 633.77392872757 614.23367583958 L 623.46142872757 640.85867583958 C 620.58642872757 647.98367583958 617.72705372757 653.65555083958 614.88330372757 657.87430083958 C 612.03955372757 662.09305083958 607.93017872757 664.23367583958 602.55517872757 664.29617583958 C 597.11767872757 664.23367583958 592.99267872757 662.07742583958 590.18017872757 657.82742583958 Z M 661.43017872757 607.48367583958 L 665.74267872757 607.48367583958 L 697.61767872757 607.48367583958 C 699.36767872757 607.54617583958 700.82080372757 608.20242583958 701.97705372757 609.45242583958 C 703.13330372757 610.70242583958 703.71142872757 612.20242583958 703.71142872757 613.95242583958 C 703.39892872757 617.70242583958 701.36767872757 619.73367583958 697.61767872757 620.04617583958 L 664.61767872757 620.04617583958 C 662.24267872757 620.17117583958 660.27392872757 621.07742583958 658.71142872757 622.76492583958 C 657.14892872757 624.45242583958 656.00830372757 626.37430083958 655.28955372757 628.53055083958 C 654.57080372757 630.68680083958 654.21142872757 632.88992583958 654.21142872757 635.13992583958 C 654.21142872757 637.38992583958 654.57080372757 639.59305083958 655.28955372757 641.74930083958 C 656.00830372757 643.90555083958 657.14892872757 645.82742583958 658.71142872757 647.51492583958 C 660.27392872757 649.20242583958 662.24267872757 650.10867583958 664.61767872757 650.23367583958 L 697.61767872757 650.23367583958 C 699.36767872757 650.29617583958 700.82080372757 650.95242583958 701.97705372757 652.20242583958 C 703.13330372757 653.45242583958 703.71142872757 654.95242583958 703.71142872757 656.70242583958 C 703.64892872757 658.38992583958 703.03955372757 659.81180083958 701.88330372757 660.96805083958 C 700.72705372757 662.12430083958 699.30517872757 662.73367583958 697.61767872757 662.79617583958 L 663.21142872757 662.79617583958 L 661.43017872757 662.79617583958 C 657.05517872757 662.54617583958 653.44580372757 660.87430083958 650.60205372757 657.78055083958 C 647.75830372757 654.68680083958 645.72705372757 651.17117583958 644.50830372757 647.23367583958 C 643.28955372757 643.29617583958 642.68017872757 639.26492583958 642.68017872757 635.13992583958 C 642.68017872757 631.01492583958 643.30517872757 626.98367583958 644.55517872757 623.04617583958 C 645.80517872757 619.10867583958 647.83642872757 615.59305083958 650.64892872757 612.49930083958 C 653.46142872757 609.40555083958 657.05517872757 607.73367583958 661.43017872757 607.48367583958 Z M 703.52392872757 634.76492583958 C 703.52392872757 636.51492583958 702.89892872757 637.98367583958 701.64892872757 639.17117583958 C 700.46142872757 640.42117583958 698.99267872757 641.04617583958 697.24267872757 641.04617583958 L 668.93017872757 641.04617583958 C 667.18017872757 641.04617583958 665.69580372757 640.43680083958 664.47705372757 639.21805083958 C 663.25830372757 637.99930083958 662.64892872757 636.51492583958 662.64892872757 634.76492583958 C 662.64892872757 633.01492583958 663.24267872757 631.51492583958 664.43017872757 630.26492583958 C 665.68017872757 629.07742583958 667.18017872757 628.48367583958 668.93017872757 628.48367583958 L 697.24267872757 628.48367583958 C 698.99267872757 628.48367583958 700.47705372757 629.09305083958 701.69580372757 630.31180083958 C 702.91455372757 631.53055083958 703.52392872757 633.01492583958 703.52392872757 634.76492583958 Z M 725.74267872757 658.01492583958 C 725.36767872757 661.76492583958 723.30517872757 663.79617583958 719.55517872757 664.10867583958 C 717.80517872757 664.10867583958 716.28955372757 663.53055083958 715.00830372757 662.37430083958 C 713.72705372757 661.21805083958 713.08642872757 659.76492583958 713.08642872757 658.01492583958 L 713.08642872757 613.57742583958 C 713.14892872757 611.82742583958 713.80517872757 610.37430083958 715.05517872757 609.21805083958 C 716.30517872757 608.06180083958 717.80517872757 607.48367583958 719.55517872757 607.48367583958 L 724.14892872757 607.48367583958 L 735.68017872757 607.48367583958 L 758.83642872757 607.48367583958 C 759.21142872757 607.48367583958 759.58642872757 607.51492583958 759.96142872757 607.57742583958 L 760.52392872757 607.57742583958 C 764.89892872757 607.70242583958 768.49267872757 608.70242583958 771.30517872757 610.57742583958 C 774.11767872757 612.45242583958 776.14892872757 614.59305083958 777.39892872757 616.99930083958 C 778.64892872757 619.40555083958 779.27392872757 621.82742583958 779.27392872757 624.26492583958 C 779.27392872757 626.76492583958 778.66455372757 629.21805083958 777.44580372757 631.62430083958 C 776.22705372757 634.03055083958 774.19580372757 636.17117583958 771.35205372757 638.04617583958 C 768.50830372757 639.92117583958 764.89892872757 640.92117583958 760.52392872757 641.04617583958 L 744.02392872757 641.04617583958 C 744.52392872757 644.17117583958 745.55517872757 646.48367583958 747.11767872757 647.98367583958 C 748.61767872757 649.48367583958 750.52392872757 650.23367583958 752.83642872757 650.23367583958 L 773.08642872757 650.23367583958 C 774.83642872757 650.29617583958 776.28955372757 650.95242583958 777.44580372757 652.20242583958 C 778.60205372757 653.45242583958 779.18017872757 654.95242583958 779.18017872757 656.70242583958 C 779.11767872757 658.38992583958 778.50830372757 659.81180083958 777.35205372757 660.96805083958 C 776.19580372757 662.12430083958 774.77392872757 662.73367583958 773.08642872757 662.79617583958 L 751.14892872757 662.79617583958 C 746.52392872757 662.85867583958 742.33642872757 661.04617583958 738.58642872757 657.35867583958 C 734.83642872757 653.67117583958 732.55517872757 649.29617583958 731.74267872757 644.23367583958 C 730.61767872757 638.60867583958 730.05517872757 635.45242583958 730.05517872757 634.76492583958 C 730.05517872757 633.01492583958 730.66455372757 631.53055083958 731.88330372757 630.31180083958 C 733.10205372757 629.09305083958 734.58642872757 628.48367583958 736.33642872757 628.48367583958 L 761.08642872757 628.48367583958 C 762.27392872757 628.42117583958 763.25830372757 628.15555083958 764.03955372757 627.68680083958 C 764.82080372757 627.21805083958 765.39892872757 626.68680083958 765.77392872757 626.09305083958 C 766.14892872757 625.49930083958 766.33642872757 624.88992583958 766.33642872757 624.26492583958 C 766.33642872757 623.63992583958 766.14892872757 623.03055083958 765.77392872757 622.43680083958 C 765.39892872757 621.84305083958 764.82080372757 621.31180083958 764.03955372757 620.84305083958 C 763.25830372757 620.37430083958 762.27392872757 620.10867583958 761.08642872757 620.04617583958 L 735.68017872757 620.04617583958 L 728.18017872757 620.04617583958 C 726.55517872757 620.10867583958 725.74267872757 620.92117583958 725.74267872757 622.48367583958 L 725.74267872757 658.01492583958 Z M 850.05517872757 613.76492583958 C 850.05517872757 615.51492583958 849.43017872757 616.98367583958 848.18017872757 618.17117583958 C 846.99267872757 619.42117583958 845.52392872757 620.04617583958 843.77392872757 620.04617583958 L 806.27392872757 620.04617583958 C 805.08642872757 620.10867583958 804.10205372757 620.37430083958 803.32080372757 620.84305083958 C 802.53955372757 621.31180083958 801.96142872757 621.84305083958 801.58642872757 622.43680083958 C 801.21142872757 623.03055083958 801.02392872757 623.63992583958 801.02392872757 624.26492583958 C 801.02392872757 624.88992583958 801.21142872757 625.49930083958 801.58642872757 626.09305083958 C 801.96142872757 626.68680083958 802.53955372757 627.21805083958 803.32080372757 627.68680083958 C 804.10205372757 628.15555083958 805.08642872757 628.42117583958 806.27392872757 628.48367583958 L 832.89892872757 628.48367583958 C 837.27392872757 628.60867583958 840.88330372757 629.62430083958 843.72705372757 631.53055083958 C 846.57080372757 633.43680083958 848.60205372757 635.62430083958 849.82080372757 638.09305083958 C 851.03955372757 640.56180083958 851.64892872757 643.07742583958 851.64892872757 645.63992583958 C 851.64892872757 648.13992583958 851.02392872757 650.62430083958 849.77392872757 653.09305083958 C 848.52392872757 655.56180083958 846.49267872757 657.74930083958 843.68017872757 659.65555083958 C 840.86767872757 661.56180083958 837.27392872757 662.51492583958 832.89892872757 662.51492583958 L 832.33642872757 662.51492583958 C 831.96142872757 662.57742583958 831.58642872757 662.60867583958 831.21142872757 662.60867583958 L 795.77392872757 662.60867583958 C 794.02392872757 662.60867583958 792.53955372757 661.99930083958 791.32080372757 660.78055083958 C 790.10205372757 659.56180083958 789.49267872757 658.07742583958 789.49267872757 656.32742583958 C 789.49267872757 654.57742583958 790.11767872757 653.10867583958 791.36767872757 651.92117583958 C 792.55517872757 650.67117583958 794.02392872757 650.04617583958 795.77392872757 650.04617583958 L 833.46142872757 650.04617583958 C 834.64892872757 650.10867583958 835.63330372757 649.88992583958 836.41455372757 649.38992583958 C 837.19580372757 648.88992583958 837.77392872757 648.31180083958 838.14892872757 647.65555083958 C 838.52392872757 646.99930083958 838.71142872757 646.32742583958 838.71142872757 645.63992583958 C 838.71142872757 645.20242583958 838.52392872757 644.59305083958 838.14892872757 643.81180083958 C 837.77392872757 643.03055083958 837.19580372757 642.38992583958 836.41455372757 641.88992583958 C 835.63330372757 641.38992583958 834.64892872757 641.10867583958 833.46142872757 641.04617583958 L 806.83642872757 641.04617583958 C 802.46142872757 640.92117583958 798.85205372757 639.92117583958 796.00830372757 638.04617583958 C 793.16455372757 636.17117583958 791.13330372757 634.03055083958 789.91455372757 631.62430083958 C 788.69580372757 629.21805083958 788.08642872757 626.76492583958 788.08642872757 624.26492583958 C 788.08642872757 621.82742583958 788.71142872757 619.40555083958 789.96142872757 616.99930083958 C 791.21142872757 614.59305083958 793.24267872757 612.45242583958 796.05517872757 610.57742583958 C 798.86767872757 608.70242583958 802.46142872757 607.70242583958 806.83642872757 607.57742583958 L 807.39892872757 607.57742583958 C 807.77392872757 607.51492583958 808.14892872757 607.48367583958 808.52392872757 607.48367583958 L 843.77392872757 607.48367583958 C 845.52392872757 607.48367583958 847.00830372757 608.09305083958 848.22705372757 609.31180083958 C 849.44580372757 610.53055083958 850.05517872757 612.01492583958 850.05517872757 613.76492583958 Z M 879.58642872757 607.48367583958 L 883.89892872757 607.48367583958 L 915.77392872757 607.48367583958 C 917.52392872757 607.54617583958 918.97705372757 608.20242583958 920.13330372757 609.45242583958 C 921.28955372757 610.70242583958 921.86767872757 612.20242583958 921.86767872757 613.95242583958 C 921.55517872757 617.70242583958 919.52392872757 619.73367583958 915.77392872757 620.04617583958 L 882.77392872757 620.04617583958 C 880.39892872757 620.17117583958 878.43017872757 621.07742583958 876.86767872757 622.76492583958 C 875.30517872757 624.45242583958 874.16455372757 626.37430083958 873.44580372757 628.53055083958 C 872.72705372757 630.68680083958 872.36767872757 632.88992583958 872.36767872757 635.13992583958 C 872.36767872757 637.38992583958 872.72705372757 639.59305083958 873.44580372757 641.74930083958 C 874.16455372757 643.90555083958 875.30517872757 645.82742583958 876.86767872757 647.51492583958 C 878.43017872757 649.20242583958 880.39892872757 650.10867583958 882.77392872757 650.23367583958 L 915.77392872757 650.23367583958 C 917.52392872757 650.29617583958 918.97705372757 650.95242583958 920.13330372757 652.20242583958 C 921.28955372757 653.45242583958 921.86767872757 654.95242583958 921.86767872757 656.70242583958 C 921.80517872757 658.38992583958 921.19580372757 659.81180083958 920.03955372757 660.96805083958 C 918.88330372757 662.12430083958 917.46142872757 662.73367583958 915.77392872757 662.79617583958 L 881.36767872757 662.79617583958 L 879.58642872757 662.79617583958 C 875.21142872757 662.54617583958 871.60205372757 660.87430083958 868.75830372757 657.78055083958 C 865.91455372757 654.68680083958 863.88330372757 651.17117583958 862.66455372757 647.23367583958 C 861.44580372757 643.29617583958 860.83642872757 639.26492583958 860.83642872757 635.13992583958 C 860.83642872757 631.01492583958 861.46142872757 626.98367583958 862.71142872757 623.04617583958 C 863.96142872757 619.10867583958 865.99267872757 615.59305083958 868.80517872757 612.49930083958 C 871.61767872757 609.40555083958 875.21142872757 607.73367583958 879.58642872757 607.48367583958 Z M 921.68017872757 634.76492583958 C 921.68017872757 636.51492583958 921.05517872757 637.98367583958 919.80517872757 639.17117583958 C 918.61767872757 640.42117583958 917.14892872757 641.04617583958 915.39892872757 641.04617583958 L 887.08642872757 641.04617583958 C 885.33642872757 641.04617583958 883.85205372757 640.43680083958 882.63330372757 639.21805083958 C 881.41455372757 637.99930083958 880.80517872757 636.51492583958 880.80517872757 634.76492583958 C 880.80517872757 633.01492583958 881.39892872757 631.51492583958 882.58642872757 630.26492583958 C 883.83642872757 629.07742583958 885.33642872757 628.48367583958 887.08642872757 628.48367583958 L 915.39892872757 628.48367583958 C 917.14892872757 628.48367583958 918.63330372757 629.09305083958 919.85205372757 630.31180083958 C 921.07080372757 631.53055083958 921.68017872757 633.01492583958 921.68017872757 634.76492583958 Z"/></svg>